<svg xmlns="http://www.w3.org/2000/svg" xml:space="preserve" width="2000" height="1500" data-id="lg_nLdssGhyrNDWmoGO4F" data-version="1" viewBox="0 0 2000 1500"><path fill="#fff0f0" stroke="transparent" d="M0 0h2000v1500H0z"/><g data-padding="20"><g transform="translate(-1458.61 -1091.94)scale(2.3923)"><path fill="none" stroke="#ff4d4d" stroke-width="9.825" d="M1032.127 543.295a198.337 198.337 0 1 0 0 396.674 198.337 198.337 0 1 0 0-396.674Z" paint-order="stroke"/><rect width="527.683" height="171.125" x="364.125" y="333.519" fill="#fff0f0" rx="0" ry="0" transform="translate(408.16 484.77)"/><rect width="506.253" height="122.778" x="374.84" y="357.693" fill="#fff0f0" rx="0" ry="0" transform="translate(380.62 502.82)"/><rect width="191.375" height="141.25" x="532.279" y="348.457" fill="none" rx="0" ry="0" transform="translate(254.9 499.87)"/><path d="M802.737 958.592q-2.5 0-3.81-1.44t-1.31-3.94v-78.37q0-2.63 1.37-3.94 1.38-1.31 3.88-1.31h29.62q14.13 0 21.75 6.94 7.63 6.93 7.63 19.56 0 12.5-7.63 19.5-7.62 7-21.75 7h-24.62v30.62q0 2.5-1.25 3.94t-3.88 1.44m5.13-80.5v35.87h23.37q10.13 0 15.31-4.56 5.19-4.56 5.19-13.31 0-8.88-5.19-13.44-5.18-4.56-15.31-4.56Zm72.63 80.51q-2.5 0-3.81-1.38-1.31-1.37-1.31-3.87v-52.13q0-2.5 1.25-3.81t3.62-1.31q2.38 0 3.69 1.31t1.31 3.81v10.13h-1.25q2-7.38 7.63-11.38 5.62-4 13.87-4.25 1.88-.12 3 .82 1.13.93 1.25 3.18.13 2.13-1 3.38-1.12 1.25-3.5 1.5l-2 .25q-8.5.75-13.06 5.44-4.56 4.68-4.56 12.81v30.25q0 2.5-1.32 3.87-1.31 1.38-3.81 1.38m64.87.24q-8.88 0-15.38-3.88-6.5-3.87-10.06-10.93-3.56-7.07-3.56-16.69 0-7.25 2-13.06 2-5.82 5.87-9.94 3.88-4.13 9.19-6.31 5.31-2.19 11.94-2.19 8.87 0 15.37 3.87 6.5 3.88 10.06 10.94 3.57 7.06 3.57 16.69 0 7.25-2 13t-5.88 9.94q-3.87 4.18-9.19 6.37-5.31 2.19-11.93 2.19m0-8.13q5.62 0 9.87-2.75t6.56-8q2.32-5.25 2.32-12.62 0-11.38-5.07-17.38-5.06-6-13.68-6-5.75 0-9.94 2.69t-6.5 7.88q-2.31 5.18-2.31 12.81 0 11.25 5.12 17.31 5.13 6.06 13.63 6.06m73.367-164.978a8.47 8.47 0 0 0-4.442-6.984 9.39 9.39 0 0 1-4.42-8.474v-33.09a2.53 2.53 0 1 1 5.06 0v24.48c0 1.42.917 2.565 2.314 2.565 1.42 0 2.748-1.145 2.748-2.565l.297-20.61v-3.893c0-1.374.481-2.496 1.855-2.496h1.191c1.374 0 1.878 1.122 1.878 2.519v3.893l.275 20.587c0 1.42 1.35 2.565 2.748 2.565 1.42 0 2.313-1.145 2.313-2.565v-24.503a2.53 2.53 0 0 1 5.06 0v33.09a11 11 0 0 1-4.42 8.474c-2.335 1.694-4.419 4.51-4.419 6.984l2.153 53.998h22.602l-.069-.366a4.12 4.12 0 0 1 3.07-4.511L1072 830.48v-28.877q-12.687-1.283-19.35-10.488c-13.397-18.595-1.535-54.915-1.008-56.45h48.891c.527 1.535 12.39 37.855-1.03 56.472q-6.642 9.183-19.328 10.466v28.877l17.45 4.35a4.12 4.12 0 0 1 3.091 4.512q0 .206-.068.366h31.03l-21.023-158.353h-27.09a42.32 42.32 0 0 0-55.488-38.13 43.5 43.5 0 0 0-13.282-2.174c-22.558.036-41.119 17.77-42.18 40.304h-25.97l-21.068 158.376h90.982Zm22.625-137.263c18.55 0 33.755 14.588 34.808 32.885H1057a42.37 42.37 0 0 0-18.16-32.747q1.237-.115 2.52-.138m-61.35 32.885c1.054-18.32 16.236-32.885 34.808-32.885q1.26.023 2.52.115a42.37 42.37 0 0 0-18.16 32.793Zm48.09-30.251a35.04 35.04 0 0 1 21.503 30.25h-43.029a35.04 35.04 0 0 1 21.526-30.25"/><rect width="304" height="140.758" x="475.967" y="348.703" fill="none" rx="0" ry="0" transform="translate(501.25 507.13)"/><path fill="#ff4d4d" d="M1017.697 964.842h-24.04q-2.74 0-4.18-1.43-1.43-1.44-1.43-4.18v-76.6q0-2.74 1.43-4.18 1.44-1.43 4.18-1.43h24.04q21.3 0 32.88 11.21 11.59 11.21 11.59 32.64 0 10.71-2.93 18.87t-8.66 13.76q-5.73 5.61-13.95 8.47-8.22 2.87-18.93 2.87m-19.43-79.1v70.38h18.68q8.72 0 15.14-2.24 6.41-2.24 10.71-6.6t6.41-11.03q2.12-6.66 2.12-15.38 0-17.57-8.59-26.35-8.6-8.78-25.79-8.78Zm85.82 79.72q-2.49 0-3.74-1.43-1.24-1.43-1.24-4.05v-50.95q0-2.61 1.24-3.98 1.25-1.37 3.74-1.37 2.37 0 3.74 1.37t1.37 3.98v50.95q0 2.62-1.31 4.05t-3.8 1.43m0-75.73q-3.11 0-4.86-1.69-1.74-1.68-1.74-4.54 0-2.99 1.74-4.55 1.75-1.56 4.86-1.56 3.24 0 4.92 1.56t1.68 4.55q0 2.86-1.68 4.54-1.68 1.69-4.92 1.69m28.91 75.98q-2.49 0-3.74-1.37-1.24-1.37-1.24-3.86v-51.94q0-2.5 1.24-3.8 1.25-1.31 3.62-1.31 2.36 0 3.67 1.31 1.31 1.3 1.31 3.8v10.71l-1.37-1.5q2.61-7.22 8.53-10.9 5.92-3.67 13.64-3.67 7.23 0 12.02 2.62 4.8 2.61 7.16 7.91 2.37 5.29 2.37 13.39v33.38q0 2.49-1.31 3.86t-3.67 1.37q-2.49 0-3.8-1.37t-1.31-3.86v-32.76q0-8.47-3.3-12.4-3.3-3.92-10.53-3.92-8.34 0-13.26 5.17t-4.92 13.76v30.15q0 5.23-5.11 5.23m93.04.25q-9.59 0-16.5-3.8-6.92-3.8-10.72-10.77-3.8-6.98-3.8-16.7 0-9.46 3.74-16.5t10.28-11.02q6.54-3.99 15.13-3.99 6.11 0 10.96 2.05 4.86 2.06 8.29 5.92 3.42 3.86 5.23 9.34t1.81 12.34q0 1.99-1.13 2.92-1.12.94-3.23.94h-43.35v-6.6h40.98l-1.99 1.61q0-6.72-2-11.39-1.99-4.67-5.79-7.17-3.8-2.49-9.53-2.49-6.35 0-10.77 2.93-4.43 2.93-6.67 8.1t-2.24 12.02v.75q0 11.46 5.54 17.43 5.55 5.98 15.76 5.98 4.24 0 8.41-1.12t8.16-3.73q1.74-1.13 3.17-1.06 1.44.06 2.31.87t1.18 1.99-.25 2.56q-.56 1.37-2.18 2.36-4.11 2.99-9.71 4.61-5.61 1.62-11.09 1.62m44.11-.24q-2.5 0-3.8-1.37-1.31-1.37-1.31-3.86v-51.94q0-2.5 1.24-3.8 1.25-1.31 3.62-1.31 2.36 0 3.67 1.31 1.31 1.3 1.31 3.8v10.09h-1.25q2-7.35 7.6-11.34 5.61-3.99 13.83-4.23 1.87-.13 2.99.8 1.12.94 1.24 3.18.13 2.12-.99 3.36-1.12 1.25-3.49 1.5l-1.99.25q-8.47.75-13.02 5.42t-4.55 12.76v30.15q0 2.49-1.3 3.86-1.31 1.37-3.8 1.37"/></g><path fill="transparent" stroke="transparent" stroke-width="2.483" d="M323.262 187.5h1353.476v1125H323.262z"/></g></svg>